<svg width="256" height="256" viewBox="0 0 256 256" fill="none" xmlns="http://www.w3.org/2000/svg">
<path fill-rule="evenodd" clip-rule="evenodd" d="M25.5999 220V207.2C33.1938 207.2 39.079 204.986 43.8754 201.236C48.7793 197.402 52.8685 191.703 56.2784 184.298C63.1684 169.336 66.6144 148.96 69.235 127.62C69.8839 122.336 70.4828 116.978 71.0777 111.655C72.8286 95.9879 74.5453 80.6273 77.4029 68.3717C79.3223 60.1397 81.9101 52.5355 85.8449 46.8707C89.9619 40.9437 95.8492 36.8 103.786 36.8C113.123 36.8 119.39 42.4911 123.346 49.89C127.171 57.0436 129.382 66.6369 130.851 76.9882C132.337 87.4647 133.146 99.3967 133.834 111.562C133.993 114.385 134.146 117.22 134.299 120.058C134.709 127.646 135.119 135.253 135.659 142.706C146.668 143.863 154.456 148.23 160.482 154.548C165.688 160.005 169.556 167.022 173.081 173.414C173.96 175.009 174.818 176.565 175.67 178.048C180.171 185.883 185.046 192.928 192.905 198.162C200.712 203.36 212.132 207.2 230.4 207.2V220.8H162.646C155.251 220.8 148.963 218.351 143.844 213.953C138.858 209.669 135.254 203.781 132.56 197.23C127.847 185.769 125.411 170.981 123.896 155.553C116.53 156.533 112.075 159.465 108.625 163.242C106.325 165.759 104.326 168.824 102.259 172.464C101.238 174.26 100.239 176.128 99.1769 178.114L99.1439 178.176C98.0821 180.16 96.961 182.255 95.7651 184.36C90.9506 192.838 84.6554 202.009 73.5844 208.907C62.5343 215.792 47.4097 220 25.5999 220ZM136.784 155.776C138.27 170.236 140.528 182.95 144.398 192.361C146.639 197.812 149.254 201.726 152.185 204.244C154.982 206.647 158.311 208 162.646 208H184.62C174.976 201.204 169.182 192.452 164.571 184.424C163.44 182.455 162.401 180.578 161.411 178.791C157.995 172.625 155.17 167.523 151.22 163.383C147.773 159.769 143.437 156.939 136.784 155.776ZM122.832 142.788C112.271 144.059 104.868 148.376 99.1749 154.608C95.9249 158.166 93.3739 162.189 91.1285 166.143C90.0272 168.082 88.9621 170.073 87.9254 172.011L87.8575 172.138C86.7865 174.14 85.7388 176.095 84.6347 178.039C80.2492 185.762 75.2444 192.791 66.8154 198.043C65.2109 199.043 63.4577 199.993 61.5318 200.876C63.9641 197.421 66.0684 193.64 67.9049 189.652C75.7275 172.664 79.3288 150.44 81.9396 129.18C82.6408 123.47 83.2705 117.841 83.8834 112.361C85.6069 96.9532 87.1974 82.7345 89.8686 71.2782C91.6739 63.5352 93.8195 57.8269 96.3576 54.173C98.7135 50.7812 101.039 49.6 103.786 49.6C106.81 49.6 109.463 51.0713 112.058 55.9254C114.785 61.0249 116.757 68.7753 118.178 78.7865C119.58 88.6725 120.367 100.122 121.054 112.284C121.209 115.032 121.359 117.818 121.511 120.625C121.906 127.957 122.31 135.438 122.832 142.788Z" fill="black"/>
<path fill-rule="evenodd" clip-rule="evenodd" d="M33.1851 136H25.5999V123.2H33.1851V136ZM55.9407 136H40.7703V123.2H55.9407V136ZM78.6962 136H63.5258V123.2H78.6962V136ZM101.452 136H86.2814V123.2H101.452V136ZM124.207 136H109.037V123.2H124.207V136ZM146.963 136H131.792V123.2H146.963V136ZM169.718 136H154.548V123.2H169.718V136ZM192.474 136H177.304V123.2H192.474V136ZM215.23 136H200.059V123.2H215.23V136ZM230.4 136H222.815V123.2H230.4V136Z" fill="black"/>
</svg>
